<svg version="1.1" xmlns="http://www.w3.org/2000/svg" xmlns:xlink="http://www.w3.org/1999/xlink" width="60.23409" height="117.72954" viewBox="0,0,60.23409,117.72954"><g transform="translate(-197.26467,-136)"><g stroke="#000000" stroke-miterlimit="10"><path d="M239.01095,190.94291c-11.02954,29.47111 -18.70625,53.90587 -23.39136,52.09733c-3.21056,-1.00832 5.52057,-25.15587 16.55011,-54.62697c19.40026,-50.36209 19.11759,-53.78478 23.39137,-52.09733c5.09202,1.8446 0.3416,6.46323 -16.55012,54.62697z" fill="#d99e82" stroke-width="0"/><path d="M215.70803,198.14617c4.62357,-3.84806 8.50885,-3.8783 14.55274,-2.94c3.7962,0.94941 3.94908,1.07891 5.71606,1.94996c1.26261,0.62242 3.08481,1.82068 4.53075,3.07615c6.15136,5.33977 5.26173,18.34687 -2.19171,24.55014c-3.7831,3.14856 -7.69279,2.82265 -12.24363,2.3874c-4.41519,-0.42229 -8.60573,-2.01548 -12.55592,-4.76162c-6.24298,-7.35541 -5.26173,-18.05876 2.19171,-24.26203z" fill="#ffd983" stroke-width="0"/><path d="M235.68684,247.77049c-2.68719,5.33002 -9.40049,5.95905 -17.73105,5.95905c-7.55971,0 -14.98238,-0.68765 -18.58348,-5.95331c-3.7406,-5.46967 -1.87311,-12.42665 0.7492,-16.90554c3.29373,-4.72611 3.98285,-5.22659 6.332,-6.90816c2.61696,-1.87329 5.77602,-2.80733 9.40006,-2.45432c3.10855,0.35036 8.62568,1.92454 10.8511,2.73285c5.93364,2.15522 8.49939,4.59607 9.84623,10.86565c0.82486,4.51637 1.69708,6.97954 -0.86406,12.66379z" fill="#a6d388" stroke-width="0"/><g><path d="M234.84396,203.46985c-9.14277,0 -16.55443,-7.24756 -16.55443,-16.18792c0,-0.78587 -6.31352,-9.26285 -5.83245,-12.90786c0.40452,-2.76293 9.55433,-0.3003 11.53093,-0.54877c4.86102,-1.00187 5.4542,-2.73129 10.85596,-2.73129c1.57876,0 3.53694,-7.03389 6.07355,-5.48884c4.69159,2.85764 10.48089,15.87384 10.48089,21.67674c0,8.94036 -7.41168,16.18792 -16.55443,16.18792z" fill="#fcb1e3" stroke-width="0"/><path d="M235.05037,185.63685c-1.41148,0 -2.55572,-1.14423 -2.55572,-2.55573c0,-1.41149 1.14423,-2.55572 2.55572,-2.55572c1.4115,0 2.55572,1.14422 2.55572,2.55572c0,1.4115 -1.14422,2.55573 -2.55572,2.55573z" fill="#000000" stroke-width="1.5"/><path d="M247.01411,178.89565z" fill="#000000" stroke-width="0"/><path d="M248.79199,179.82167c0,1.37058 -0.22211,1.74084 -1.59269,1.74084c-0.68528,0 -0.93531,-0.35186 -1.3844,-0.80094c-0.44908,-0.44908 -0.80093,-0.99542 -0.80093,-1.68071c0,-1.37058 -0.07421,-1.74085 1.29638,-1.74085c1.37058,0 2.48163,1.11107 2.48163,2.48165z" fill="#000000" stroke-width="1.5"/></g></g></g></svg>