<svg version="1.1" xmlns="http://www.w3.org/2000/svg" xmlns:xlink="http://www.w3.org/1999/xlink" width="60.23409" height="117.72954" viewBox="0,0,60.23409,117.72954"><g transform="translate(-197.26467,-136.00001)"><g stroke="#000000" stroke-miterlimit="10"><path d="M199.20236,136.31594c4.27378,-1.68745 3.99111,1.73524 23.39137,52.09733c11.02954,29.4711 19.76067,53.61865 16.55011,54.62697c-4.68511,1.80854 -12.36182,-22.62622 -23.39136,-52.09733c-16.89172,-48.16374 -21.64214,-52.78237 -16.55012,-54.62697z" fill="#d99e82" stroke-width="0"/><path d="M241.24711,222.4082c-3.95019,2.74614 -8.14073,4.33933 -12.55592,4.76162c-4.55084,0.43525 -8.46053,0.76116 -12.24363,-2.3874c-7.45344,-6.20327 -8.34307,-19.21037 -2.19171,-24.55014c1.44594,-1.25547 3.26814,-2.45373 4.53075,-3.07615c1.76698,-0.87105 1.91986,-1.00055 5.71606,-1.94996c6.04389,-0.9383 9.92917,-0.90806 14.55274,2.94c7.45344,6.20327 8.43469,16.90662 2.19171,24.26203z" fill="#ffd983" stroke-width="0"/><path d="M219.07659,247.7705c-2.56114,-5.68425 -1.68892,-8.14742 -0.86406,-12.66379c1.34684,-6.26958 3.91259,-8.71043 9.84623,-10.86565c2.22542,-0.80831 7.74255,-2.38249 10.8511,-2.73285c3.62404,-0.35301 6.7831,0.58103 9.40006,2.45432c2.34915,1.68157 3.03827,2.18205 6.332,6.90816c2.62231,4.47889 4.4898,11.43587 0.7492,16.90554c-3.6011,5.26566 -11.02377,5.95331 -18.58348,5.95331c-8.33056,0 -15.04386,-0.62903 -17.73105,-5.95905z" fill="#a6d388" stroke-width="0"/><g><path d="M219.91945,203.46983c-9.14275,0 -16.55443,-7.24756 -16.55443,-16.18792c0,-5.8029 5.7893,-18.8191 10.48089,-21.67674c2.53661,-1.54505 4.49479,5.48884 6.07355,5.48884c5.40176,0 5.99494,1.72942 10.85596,2.73129c1.9766,0.24847 11.12641,-2.21416 11.53093,0.54877c0.48107,3.64501 -5.83245,12.12199 -5.83245,12.90786c0,8.94036 -7.41166,16.18792 -16.55443,16.18792z" fill="#fcb1e3" stroke-width="0"/><path d="M217.15734,183.08112c0,-1.4115 1.14422,-2.55572 2.55572,-2.55572c1.41149,0 2.55572,1.14423 2.55572,2.55572c0,1.4115 -1.14424,2.55573 -2.55572,2.55573c-1.4115,0 -2.55572,-1.14423 -2.55572,-2.55573z" fill="#000000" stroke-width="1.5"/><path d="M207.74932,178.89565z" fill="#000000" stroke-width="0"/><path d="M205.97145,179.82166c0,-1.37058 1.11105,-2.48165 2.48163,-2.48165c1.37059,0 1.29638,0.37027 1.29638,1.74085c0,0.68529 -0.35185,1.23163 -0.80093,1.68071c-0.44909,0.44908 -0.69912,0.80094 -1.3844,0.80094c-1.37058,0 -1.59269,-0.37026 -1.59269,-1.74084z" fill="#000000" stroke-width="1.5"/></g></g></g></svg>